<svg width="18" height="20" viewBox="0 0 18 20" fill="none" xmlns="http://www.w3.org/2000/svg">
<path d="M11 7H7C6.45 7 6 6.55 6 6C6 5.45 6.45 5 7 5H11C11.55 5 12 5.45 12 6C12 6.55 11.55 7 11 7Z" fill="#90A3AE"/>
<path d="M11 10H7C6.45 10 6 9.55 6 9C6 8.45 6.45 8 7 8H11C11.55 8 12 8.45 12 9C12 9.55 11.55 10 11 10Z" fill="#90A3AE"/>
<path d="M16.5 1.5L15 0L13.5 1.5L12 0L10.5 1.5L9 0L7.5 1.5L6 0L4.5 1.5L3 0V14H1C0.45 14 0 14.45 0 15V17C0 18.66 1.34 20 3 20H15C16.66 20 18 18.66 18 17V0L16.5 1.5ZM12 18H3C2.45 18 2 17.55 2 17V16H12V18ZM16 17C16 17.55 15.55 18 15 18C14.45 18 14 17.55 14 17V15C14 14.45 13.55 14 13 14H5V3H16V17Z" fill="#90A3AE"/>
<path d="M14 7C14.5523 7 15 6.55228 15 6C15 5.44772 14.5523 5 14 5C13.4477 5 13 5.44772 13 6C13 6.55228 13.4477 7 14 7Z" fill="#90A3AE"/>
<path d="M14 10C14.5523 10 15 9.55228 15 9C15 8.44771 14.5523 8 14 8C13.4477 8 13 8.44771 13 9C13 9.55228 13.4477 10 14 10Z" fill="#90A3AE"/>
</svg>
